<?xml version="1.0" standalone="no"?>
<!DOCTYPE svg PUBLIC "-//W3C//DTD SVG 20010904//EN"
 "http://www.w3.org/TR/2001/REC-SVG-20010904/DTD/svg10.dtd">
<svg version="1.0" xmlns="http://www.w3.org/2000/svg"
 width="65.000000pt" height="65.000000pt" viewBox="0 0 65.000000 65.000000"
 preserveAspectRatio="xMidYMid meet">

<g transform="translate(0.000000,65.000000) scale(0.100000,-0.100000)"
fill="#000000" stroke="none">
<path d="M0 325 l0 -325 325 0 325 0 0 325 0 325 -325 0 -325 0 0 -325z m301
135 c22 -13 26 -50 4 -50 -8 0 -15 7 -15 15 0 20 -26 19 -34 -1 -3 -9 -6 -32
-6 -52 l1 -37 29 34 c29 34 30 34 50 16 24 -21 26 -45 5 -45 -11 0 -15 -12
-14 -47 l0 -48 21 53 c29 73 54 69 81 -12 l19 -58 20 31 c19 29 19 33 4 56
-20 30 -20 35 -1 35 7 0 18 -7 23 -16 8 -14 10 -14 21 0 13 15 41 22 41 11 0
-3 -7 -17 -16 -30 -15 -23 -14 -26 5 -54 26 -36 26 -41 3 -41 -11 0 -23 10
-29 22 l-10 23 -12 -23 c-14 -26 -75 -32 -85 -7 -7 19 -42 20 -49 1 -5 -13
-20 -16 -82 -16 -60 0 -74 3 -79 16 -7 19 -45 18 -52 -1 -7 -16 -34 -21 -34
-6 0 5 10 34 21 65 16 40 27 56 40 56 11 0 19 -5 19 -11 0 -8 4 -9 13 0 8 6
17 8 20 4 4 -3 7 19 7 50 0 43 4 58 18 66 22 13 29 13 53 1z"/>
<path d="M272 339 c3 -8 -3 -25 -13 -38 l-19 -23 -21 23 -20 24 7 -25 c9 -33
23 -59 24 -42 0 14 30 17 30 2 0 -5 7 -10 15 -10 19 0 21 85 3 96 -7 5 -9 2
-6 -7z"/>
<path d="M160 290 c0 -5 5 -10 10 -10 6 0 10 5 10 10 0 6 -4 10 -10 10 -5 0
-10 -4 -10 -10z"/>
<path d="M375 290 c-3 -5 -1 -10 4 -10 6 0 11 5 11 10 0 6 -2 10 -4 10 -3 0
-8 -4 -11 -10z"/>
</g>
</svg>
